<svg xmlns="http://www.w3.org/2000/svg" viewBox="0 0 179.62 157.43"><defs><style>.cls-1{fill:#e72456;}</style></defs><g id="圖層_2" data-name="圖層 2"><g id="圖層_1-2" data-name="圖層 1"><path class="cls-1" d="M56.05.11C64.23.26,76.78,5.36,87.6,14.73c1.78,1.54,2.86,1.48,4.61,0,13.84-12,29.91-16.67,48-13.95,17.72,2.65,33.14,17.4,37.71,35.4,3.13,12.33,2,24.15-4.18,35.21a60.37,60.37,0,0,1-9.45,12.43c-12.65,13-25.56,25.72-38.4,38.53q-15.18,15.15-30.42,30.26c-1.3,1.29-2.65,2.53-3.87,3.89s-2.26,1.2-3.52-.07c-7.74-7.78-15.54-15.52-23.32-23.26-14.09-14-28.24-28-42.23-42.11C17.59,86,12.42,81,8.43,75.29-1.3,61.26-2.31,46,3.87,30.17,11.31,11.15,29.05-.43,56.05.11Z"/></g></g></svg>